<svg width="32" height="32" viewBox="0 0 32 32" fill="none" xmlns="http://www.w3.org/2000/svg">
  <defs>
    <linearGradient id="dna-gradient-1" x1="0%" y1="0%" x2="100%" y2="100%">
      <stop offset="0%" style="stop-color:#00f260;stop-opacity:1" />
      <stop offset="100%" style="stop-color:#0575e6;stop-opacity:1" />
    </linearGradient>
    <linearGradient id="dna-gradient-2" x1="0%" y1="0%" x2="100%" y2="100%">
      <stop offset="0%" style="stop-color:#667eea;stop-opacity:1" />
      <stop offset="100%" style="stop-color:#764ba2;stop-opacity:1" />
    </linearGradient>
    <linearGradient id="digital-gradient" x1="0%" y1="0%" x2="100%" y2="100%">
      <stop offset="0%" style="stop-color:#00ff88;stop-opacity:1" />
      <stop offset="100%" style="stop-color:#00d2ff;stop-opacity:1" />
    </linearGradient>
    <filter id="helix-glow">
      <feGaussianBlur stdDeviation="0.8" result="coloredBlur"/>
      <feMerge>
        <feMergeNode in="coloredBlur"/>
        <feMergeNode in="SourceGraphic"/>
      </feMerge>
    </filter>
  </defs>

  <!-- Background -->
  <rect width="32" height="32" fill="#0a0e27" rx="4"/>

  <!-- DNA Double Helix -->
  <g transform="translate(16, 16)">
    <!-- First strand -->
    <path d="M -4 -12 Q -2 -10, 0 -8 T 4 -4 Q 2 -2, 0 0 T -4 4 Q -2 6, 0 8 T 4 12"
          stroke="url(#dna-gradient-1)"
          stroke-width="2"
          fill="none"
          filter="url(#helix-glow)"/>

    <!-- Second strand -->
    <path d="M 4 -12 Q 2 -10, 0 -8 T -4 -4 Q -2 -2, 0 0 T 4 4 Q 2 6, 0 8 T -4 12"
          stroke="url(#dna-gradient-2)"
          stroke-width="2"
          fill="none"
          filter="url(#helix-glow)"/>

    <!-- Base pairs -->
    <g stroke="url(#digital-gradient)" stroke-width="0.8" opacity="0.7">
      <line x1="-3" y1="-10" x2="3" y2="-10"/>
      <line x1="-2" y1="-8" x2="2" y2="-8"/>
      <line x1="-4" y1="-6" x2="4" y2="-6"/>
      <line x1="-3" y1="-4" x2="3" y2="-4"/>
      <line x1="-2" y1="-2" x2="2" y2="-2"/>
      <line x1="-4" y1="0" x2="4" y2="0"/>
      <line x1="-3" y1="2" x2="3" y2="2"/>
      <line x1="-2" y1="4" x2="2" y2="4"/>
      <line x1="-4" y1="6" x2="4" y2="6"/>
      <line x1="-3" y1="8" x2="3" y2="8"/>
      <line x1="-2" y1="10" x2="2" y2="10"/>
    </g>

    <!-- Nucleotide nodes -->
    <g fill="url(#digital-gradient)">
      <circle cx="-4" cy="-12" r="1.5"/>
      <circle cx="4" cy="-12" r="1.5"/>
      <circle cx="0" cy="-8" r="1"/>
      <circle cx="-4" cy="-4" r="1"/>
      <circle cx="4" cy="-4" r="1"/>
      <circle cx="0" cy="0" r="1.5"/>
      <circle cx="-4" cy="4" r="1"/>
      <circle cx="4" cy="4" r="1"/>
      <circle cx="0" cy="8" r="1"/>
      <circle cx="-4" cy="12" r="1.5"/>
      <circle cx="4" cy="12" r="1.5"/>
    </g>
  </g>

  <!-- Binary data stream -->
  <g font-family="monospace" font-size="3" fill="#00ff88" opacity="0.4">
    <text x="2" y="8">0110</text>
    <text x="24" y="8">1001</text>
    <text x="2" y="26">1010</text>
    <text x="24" y="26">0101</text>
  </g>

  <!-- Data flow particles -->
  <circle cx="6" cy="16" r="0.5" fill="#00ff88" opacity="0.8">
    <animate attributeName="cy" values="16;6;16;26;16" dur="4s" repeatCount="indefinite"/>
    <animate attributeName="opacity" values="0;0.8;0.8;0.8;0" dur="4s" repeatCount="indefinite"/>
  </circle>
  <circle cx="26" cy="16" r="0.5" fill="#00d2ff" opacity="0.8">
    <animate attributeName="cy" values="16;26;16;6;16" dur="4s" repeatCount="indefinite"/>
    <animate attributeName="opacity" values="0;0.8;0.8;0.8;0" dur="4s" repeatCount="indefinite"/>
  </circle>

  <!-- Gene editing indicator -->
  <text x="2" y="30" font-size="2.5" fill="url(#digital-gradient)" font-family="monospace" font-weight="bold">GENE</text>
</svg>