<svg width="32" height="32" viewBox="0 0 32 32" fill="none" xmlns="http://www.w3.org/2000/svg">
  <defs>
    <linearGradient id="neural-gradient" x1="0%" y1="0%" x2="100%" y2="100%">
      <stop offset="0%" style="stop-color:#00d2ff;stop-opacity:1" />
      <stop offset="50%" style="stop-color:#3a7bd5;stop-opacity:1" />
      <stop offset="100%" style="stop-color:#00d2ff;stop-opacity:1" />
    </linearGradient>
    <linearGradient id="brain-gradient" x1="0%" y1="0%" x2="100%" y2="100%">
      <stop offset="0%" style="stop-color:#1e3c72;stop-opacity:1" />
      <stop offset="100%" style="stop-color:#2a5298;stop-opacity:1" />
    </linearGradient>
    <filter id="glow">
      <feGaussianBlur stdDeviation="1" result="coloredBlur"/>
      <feMerge>
        <feMergeNode in="coloredBlur"/>
        <feMergeNode in="SourceGraphic"/>
      </feMerge>
    </filter>
  </defs>

  <!-- Background -->
  <rect width="32" height="32" fill="#050614" rx="4"/>

  <!-- Brain outline -->
  <path d="M16 4C11 4 8 7 8 11C8 13 9 14 9 16C9 18 8 19 8 21C8 24 11 28 16 28C21 28 24 24 24 21C24 19 23 18 23 16C23 14 24 13 24 11C24 7 21 4 16 4Z"
        fill="url(#brain-gradient)"
        stroke="url(#neural-gradient)"
        stroke-width="1"
        opacity="0.9"/>

  <!-- Neural network connections -->
  <g stroke="url(#neural-gradient)" stroke-width="0.5" opacity="0.8">
    <!-- Left hemisphere -->
    <path d="M10 10 L12 12 L10 14 L12 16 L10 18 L12 20" fill="none"/>
    <path d="M12 12 L14 14 L12 16 L14 18" fill="none"/>

    <!-- Right hemisphere -->
    <path d="M22 10 L20 12 L22 14 L20 16 L22 18 L20 20" fill="none"/>
    <path d="M20 12 L18 14 L20 16 L18 18" fill="none"/>

    <!-- Central connections -->
    <path d="M14 14 L16 12 L18 14" fill="none"/>
    <path d="M14 18 L16 20 L18 18" fill="none"/>
  </g>

  <!-- Neural nodes -->
  <g fill="url(#neural-gradient)">
    <!-- Left nodes -->
    <circle cx="10" cy="10" r="1.5" filter="url(#glow)"/>
    <circle cx="12" cy="12" r="1" filter="url(#glow)"/>
    <circle cx="10" cy="14" r="1" filter="url(#glow)"/>
    <circle cx="12" cy="16" r="1" filter="url(#glow)"/>
    <circle cx="10" cy="18" r="1" filter="url(#glow)"/>
    <circle cx="12" cy="20" r="1.5" filter="url(#glow)"/>

    <!-- Right nodes -->
    <circle cx="22" cy="10" r="1.5" filter="url(#glow)"/>
    <circle cx="20" cy="12" r="1" filter="url(#glow)"/>
    <circle cx="22" cy="14" r="1" filter="url(#glow)"/>
    <circle cx="20" cy="16" r="1" filter="url(#glow)"/>
    <circle cx="22" cy="18" r="1" filter="url(#glow)"/>
    <circle cx="20" cy="20" r="1.5" filter="url(#glow)"/>

    <!-- Central nodes -->
    <circle cx="16" cy="12" r="1.5" filter="url(#glow)"/>
    <circle cx="14" cy="14" r="1" filter="url(#glow)"/>
    <circle cx="18" cy="14" r="1" filter="url(#glow)"/>
    <circle cx="16" cy="16" r="2" filter="url(#glow)"/>
    <circle cx="14" cy="18" r="1" filter="url(#glow)"/>
    <circle cx="18" cy="18" r="1" filter="url(#glow)"/>
    <circle cx="16" cy="20" r="1.5" filter="url(#glow)"/>
  </g>

  <!-- Brainwave pattern -->
  <path d="M 6 26 L 8 24 L 10 28 L 12 22 L 14 30 L 16 20 L 18 30 L 20 22 L 22 28 L 24 24 L 26 26"
        stroke="#00ff88"
        stroke-width="0.8"
        fill="none"
        opacity="0.9">
    <animate attributeName="opacity" values="0.9;0.3;0.9" dur="3s" repeatCount="indefinite"/>
  </path>

  <!-- AI indicator -->
  <text x="2" y="6" font-size="3" fill="#00d2ff" font-family="monospace" font-weight="bold">AI</text>
</svg>